<svg width="122" height="112" viewBox="0 0 122 112" fill="none" xmlns="http://www.w3.org/2000/svg">
<path d="M60.1692 3.94393C61.764 3 61.764 3 61.8073 3C78.0721 12.6209 99.2728 25.6385 115.105 35.342C117.401 36.7492 118.425 37.6122 118.612 42.5583C118.985 52.405 118.642 62.0139 118.893 71.6223C118.488 72.2244 118.264 72.3395 117.977 72.4828C98.6629 59.3778 79.3672 46.6855 60.4666 33.5982C60.4933 37.4906 60.4666 40.9241 60.5161 44.0873C76.4022 55.4558 93.904 66.7129 109.905 77.9661C105.238 86.9993 99.2595 94.0736 91.1283 98.9959C81.5799 91.6523 72.1744 85.1355 62.8144 78.5732C61.8404 77.612 58.6529 75.5379 58.1661 75.2173C54.4548 72.4466 51.0546 69.9655 47.552 67.5871C33.2481 57.2189 18.6945 47.5305 5 36.9829C23.6871 26.6934 42.0364 14.3582 60.1692 3.94393ZM60.1692 3.94393C59.5263 4.31391 59.5962 4.27361 60.1692 3.94393Z" stroke="black" stroke-width="5"/>
<path d="M22.3744 64.8306L22.3949 64.8453L22.4156 64.8595C26.2808 67.5066 29.955 70.1292 33.6178 72.7437C36.0809 74.502 38.539 76.2565 41.0464 78.0123C42.8584 79.2964 44.6635 80.573 46.4617 81.8447C56.2207 88.7465 65.779 95.5062 75.1454 102.549C71.4127 104.748 66.7496 106.712 59.9017 109.356C58.3263 108.877 56.7915 108.434 55.2853 107.999C50.6624 106.665 46.3091 105.409 41.8807 103.415C35.7176 100.591 33.1339 98.852 29.4085 95.8918C22.4174 90.0106 16.7967 83.8049 13.0229 75.1921C10.077 68.1373 8.713 61.5092 7.95971 54.8791C12.8984 58.0696 17.5714 61.3972 22.3744 64.8306Z" stroke="black" stroke-width="5"/>
</svg>
