<svg xmlns="http://www.w3.org/2000/svg" xmlns:xlink="http://www.w3.org/1999/xlink" version="1.1" x="0px" y="0px" viewBox="0 0 612 990" enable-background="new 0 0 612 792" xml:space="preserve"><g><g><path fill="#000000" d="M571.438,307.333c-14.527-34.305-35.282-65.083-61.725-91.564c-26.455-26.455-57.26-47.21-91.583-61.698    c-35.501-15.049-73.247-22.666-112.164-22.666c-38.873,0-76.58,7.617-112.126,22.666c-34.311,14.488-65.128,35.243-91.551,61.698    c-26.442,26.481-47.197,57.26-61.756,91.564c-15.01,35.539-22.634,73.267-22.634,112.139c0,38.885,7.624,76.624,22.634,112.164    c14.559,34.317,35.314,65.096,61.756,91.563c26.423,26.43,57.24,47.224,91.551,61.737c35.546,15.029,73.253,22.646,112.126,22.646    c38.917,0,76.663-7.617,112.164-22.646c34.323-14.514,65.128-35.308,91.583-61.737c26.442-26.468,47.197-57.246,61.725-91.563    c15.022-35.54,22.665-73.279,22.665-112.164C594.103,380.6,586.46,342.872,571.438,307.333z M305.966,661.287    c-133.299,0-241.739-108.472-241.739-241.815c0-133.318,108.439-241.765,241.739-241.765    c133.356,0,241.814,108.446,241.814,241.765C547.781,552.815,439.323,661.287,305.966,661.287z"/></g><g><path fill="#000000" d="M413.35,507.625V331.343c0-10.603-8.602-19.197-19.211-19.197h-176.27    c-10.615,0-19.217,8.595-19.217,19.197v176.282c0,10.616,8.602,19.211,19.217,19.211h176.27    C404.748,526.836,413.35,518.241,413.35,507.625z"/></g></g></svg>
